<?xml version="1.0" standalone="no"?>
<!DOCTYPE svg PUBLIC "-//W3C//DTD SVG 1.1//EN" "http://www.w3.org/Graphics/SVG/1.1/DTD/svg11.dtd" >
<!--
2013-9-30: Created.
-->
<svg>
<metadata>
Created by iconfont
</metadata>
<defs>

<font id="iconfont" horiz-adv-x="1024" >
  <font-face
    font-family="iconfont"
    font-weight="500"
    font-stretch="normal"
    units-per-em="1024"
    ascent="896"
    descent="-128"
  />
    <missing-glyph />
    
    <glyph glyph-name="danjiantouyou" unicode="&#58921;" d="M236.906496-38.054144M285.348864-142.857472 288.144384-145.651968 735.75936 302.441216 288.144384 750.988032 285.348864 748.198656 285.348864 576.7872 559.696896 302.441216 285.348864 28.55296ZM784.668672-38.054144"  horiz-adv-x="1024" />

    
    <glyph glyph-name="danjiantouzuo" unicode="&#58940;" d="M235.213824-47.160576M734.209024-144.823552 736.638976-141.909248 736.638976 28.161792 463.58016 301.705984 736.638976 574.76992 736.638976 745.800448 734.209024 748.22528 288.175104 301.705984ZM789.11488-47.160576"  horiz-adv-x="1024" />

    
    <glyph glyph-name="iconset0237" unicode="&#59016;" d="M341.333333 640l128 0 0 42.666667-128 0L341.333333 640zM341.333333 725.333333l170.666667 0L512 768l-170.666667 0L341.333333 725.333333zM810.666667 853.333333 128 853.333333C81.066667 853.333333 42.666667 814.933333 42.666667 768l0-768c0-46.933333 38.4-85.333333 85.333333-85.333333l768 0c46.933333 0 85.333333 38.4 85.333333 85.333333L981.333333 682.666667 810.666667 853.333333zM298.666667 810.666667l426.666667 0 0-256L298.666667 554.666667 298.666667 810.666667zM810.666667-42.666667 213.333333-42.666667 213.333333 341.333333l597.333333 0L810.666667-42.666667zM938.666667 0c0-23.466667-19.2-42.666667-42.666667-42.666667l-42.666667 0L853.333333 341.333333c0 23.466667-19.2 42.666667-42.666667 42.666667L213.333333 384c-23.466667 0-42.666667-19.2-42.666667-42.666667l0-384L128-42.666667c-23.466667 0-42.666667 19.2-42.666667 42.666667L85.333333 768c0 23.466667 19.2 42.666667 42.666667 42.666667l128 0 0-256c0-23.466667 19.2-42.666667 42.666667-42.666667l426.666667 0c23.466667 0 42.666667 19.2 42.666667 42.666667L768 810.666667l21.333333 0 149.333333-149.333333L938.666667 0zM597.333333 597.333333l85.333333 0L682.666667 768l-85.333333 0L597.333333 597.333333z"  horiz-adv-x="1024" />

    
    <glyph glyph-name="chexiao" unicode="&#59113;" d="M396.656 481.206l0-415.702-199.152 201.87c-17.787 17.787-43.185 17.787-60.973 0s-18.641-41.555-0.778-59.42l266.804-273.097c17.787-17.787 41.399-17.787 59.186 0l267.115 273.173c17.787 17.787 17.787 41.555-0.078 59.42-17.787 17.787-41.166 17.787-58.953 0l-195.501-201.948 0 415.702c0 166.219 129.712 311.155 290.029 311.15499999l41.555 1e-8c23.769 0 41.555 15.069 41.555 38.836s-17.787 38.836-41.555 38.836l-41.555 0c-207.852 0-367.7-175.073-367.7-388.828z"  horiz-adv-x="1024" />

    
    <glyph glyph-name="arrow-left" unicode="&#58934;" d="M1023.99999996-128L511.99999996 384 1023.99999996 896Z"  horiz-adv-x="1024" />

    
    <glyph glyph-name="xiangshangjiantou" unicode="&#58927;" d="M771.512499 381.709841 511.614214 831.867354 251.715929 381.709841 414.441057 381.709841 414.441057-63.653483 608.786347-63.653483 608.786347 381.709841Z"  horiz-adv-x="1024" />

    
    <glyph glyph-name="xiangxiajiantou" unicode="&#58928;" d="M771.512499 386.50403 511.614214-63.653483 251.715929 386.50403 414.441057 386.50403 414.441057 831.867354 608.786347 831.867354 608.786347 386.50403Z"  horiz-adv-x="1024" />

    
    <glyph glyph-name="xia" unicode="&#58973;" d="M209.205104 192.30098c-9.572398 0-12.391722 6.018064-6.263914 13.371542L500.701725 563.064258c6.127809 7.354502 16.15355 7.354502 22.281359 0l297.760535-357.391736c6.127809-7.354502 3.308484-13.371542-6.263914-13.371542L209.205104 192.30098z"  horiz-adv-x="1024" />

    
    <glyph glyph-name="icon_rotate" unicode="&#58909;" d="M941.728 758.848C941.728 773.696 932.576 786.848 919.456 792.576 905.728 798.272 889.728 795.424 879.456 784.576L805.152 710.848C724.576 786.848 615.456 832 502.88 832 261.152 832 64 634.848 64 393.12 64 151.42399999999998 261.152-45.72799999999995 502.88-45.72799999999995 633.728-45.72799999999995 757.152 12 840.576 112.57600000000002 846.304 120 846.304 130.84799999999996 839.456 137.12L761.152 216C757.152 219.42399999999998 752 221.12 746.88 221.12 741.728 220.57600000000002 736.576 218.27200000000005 733.728 214.27200000000005 677.728 141.69600000000003 593.728 100.57600000000002 502.88 100.57600000000002 341.728 100.57600000000002 210.304 232 210.304 393.12 210.304 554.2719999999999 341.728 685.696 502.88 685.696 577.728 685.696 648.576 657.12 702.304 607.424L623.456 528.576C612.576 518.2719999999999 609.728 502.272 615.456 489.12 621.152 475.424 634.304 466.272 649.152 466.272L905.152 466.272C925.152 466.272 941.728 482.848 941.728 502.848L941.728 758.848Z"  horiz-adv-x="1024" />

    
    <glyph glyph-name="008caozuo_zhongzuo" unicode="&#58916;" d="M346.3 284.081l0 443.415L133.871 512.168c-18.973-18.973-46.064-18.973-65.038 0s-19.884 44.325-0.83 63.381l284.591 291.385c18.973 18.973 44.159 18.973 63.132 0L700.64899999 575.549c18.973-18.973 18.973-44.32500001-0.08299999-63.381-18.973-18.973-43.91-18.973-62.883 0l-208.534 215.328L429.149 284.081c0-177.29999999 138.359-314.335 309.364-314.335l44.325 0c25.354 0 44.32500001-16.074 44.32499999-41.425s-18.973-41.425-44.32499999-41.425l-44.325 0c-221.709 0-392.213 169.181-392.213 397.185z"  horiz-adv-x="1024" />

    
    <glyph glyph-name="727bianjiqi_ziti" unicode="&#58976;" d="M435.008 896L32-128h126.208l108.928 286.848H737.6L846.592-128h127.68L571.2 896H435.008z m65.984-126.208h5.696l193.6-512.064H304.512l196.48 512.064z"  horiz-adv-x="1024" />

    
    <glyph glyph-name="-shangyibu" unicode="&#58893;" d="M864.25357312-49.66384866999999a24.28230201 24.28230201 0 0 0-24.21433913 25.7192391c3.70885177 62.11841934-4.08750421 149.15022734-62.31259932 210.95795712-65.84668957 69.90506667-184.10276067 93.92522467-348.2534491 70.613826v-191.95737088a24.27259221 24.27259221 0 0 0-41.4284618-17.1655771L24.17914311 412.36980622a24.2531749 24.2531749 0 0 0 0 34.32144555l363.86558066 363.8655818a24.2531749 24.2531749 0 0 0 41.4284618-17.16557824V623.23067221c170.33534578-1.66024533 298.34899911-27.86493667 390.99262976-79.96362866 109.4499749-61.55529443 170.55865401-161.41274112 181.61724757-296.79555356 7.71868445-94.51747555-66.09912377-230.53137579-120.0716618-288.40694442a24.21433799 24.21433799 0 0 0-17.75782798-7.72839424zM543.11746333 314.86194688c120.01340643 0 210.84144867-31.80680533 269.95006577-94.55631133 48.70052978-51.69091357 68.19627577-116.2560091 74.13820757-174.8791751 39.04003755 62.28347221 70.81771577 144.21803577 66.50690333 197.09345222-18.51513401 226.66717867-190.65636067 331.53448733-541.7157211 331.53448733l-6.72836267-0.72817778H405.20059221c-6.4273829 0-12.582912 3.25252779-17.13644999 7.79635712-4.57295645 4.55353799-7.13614222 11.45666333-7.13614222 17.90346354V734.78750777L75.6661669 429.52567467 380.928 124.26384156999995V280.88031801c0 13.35963534 10.79644957 20.59286755 24.15608377 20.59286756h1.71849956c3.07776512 0 5.49531534 1.80588089 7.48566755 1.76704398l2.99038379 0.88352312 1.05828466 0.4854511c44.34117177 6.49534578 86.3715931 10.25274311 124.780544 10.25274311z"  horiz-adv-x="1024" />

    
    <glyph glyph-name="-xiayibu" unicode="&#58894;" d="M163.2125531-48.05214777000003c-6.59243577 0-13.06836423 1.87384377-17.75782798 6.91283399-60.4290469 64.78840377-122.74164622 201.49164601-115.68317667 287.99916601 26.6027611 325.81586489 322.65071843 373.18625621 555.03652067 376.28343865V793.39125533a24.27259221 24.27259221 0 0 0 41.43816931 17.16557824l363.8655818-363.8655818a24.2531749 24.2531749 0 0 0 0-34.32144555L626.25594823 48.50422557000002a24.27259221 24.27259221 0 0 0-41.43817045 17.1655771V258.83109490000004c-158.41264867 21.11715555-272.18314467-2.79620267-335.81617266-70.36139179-56.79786667-60.29312-65.07967488-146.55791445-61.73005824-209.41422023 0.262144-1.4369371 0.40777955-2.12627911 0.40777955-3.64088889 0-13.39847111-10.85470379-23.4667429-24.2434651-23.46674176h-0.22330823z m446.97493845 621.37836999c-0.29127111 0-0.60196067 0.70875933-0.90294044 0.69905067-348.64181134-0.35923399-512.39443001-102.45946823-531.12316245-331.874304-4.31081245-52.87541533 25.53476779-133.955584 62.06016512-195.1613531 7.14585088 71.10898688 32.02040377 130.70305621 73.43915577 174.67528533 58.195968 61.75918421 147.849216 93.13879267 266.46452224 93.13879154 38.30215111 0 80.28402688-3.2719451 124.7708342-9.78670933l2.40784156 0.06796401a24.29201067 24.29201067 0 0 0 26.06876445-24.21433913v-156.61647644l305.2618331 305.26183424L633.36296334 734.78750777v-126.06213689c1.28159289-2.94183822 3.43699911-6.17494755 3.43699911-9.58281955 0.03883577-8.10704555-3.43699911-23.29198023-22.85507356-24.33084644v-1.48548267h-3.75739734z"  horiz-adv-x="1024" />

    
    <glyph glyph-name="wenzi" unicode="&#58962;" d="M151.76 771.06l-24.24-194.04h24.24c0 67.92 53.34 121.26 121.26 121.26h169.8v-618.42c0-33.96-26.7-60.66-60.66-60.66h-60.6v-24.3h387.96v24.3h-60.6a60 60 0 0 0-60.66 60.66V698.34h169.8c67.86 0 121.26-53.4 121.26-121.26h24.18l-24.18 194.04H151.76v-0.06z"  horiz-adv-x="1024" />

    
    <glyph glyph-name="geshishua" unicode="&#59090;" d="M701.248 718.4l175.104 113.024 83.456-114.88-131.136-162.304-127.424 164.16z m-133.376 61.568c51.264-6.976 300.608-346.624 294.272-384.704s-145.536-143.68-145.536-143.68L400.64 657.408s116.032 129.6 167.232 122.56zM370.368 607.552l305.024-396.672-187.136-272L65.664 536.96s83.776 3.84 153.536 24.32c45.632 13.504 151.232 46.272 151.168 46.272z"  horiz-adv-x="1024" />

    
    <glyph glyph-name="xingxing" unicode="&#58913;" d="M769.097-39.636c-4.457 0-8.93 1.063-13.026 3.216L512 91.896 267.93-36.42a28 28 0 0 0-40.627 29.518l46.614 271.776L76.46 457.347a27.999 27.999 0 0 0 15.519 47.76l272.878 39.651 122.035 247.27a27.998 27.998 0 0 0 50.216 0l122.035-247.27 272.878-39.651a28.002 28.002 0 0 0 15.518-47.76L750.083 264.874l46.613-271.776a28 28 0 0 0-27.599-32.734zM512 151.53c4.476 0 8.951-1.072 13.029-3.216l206.883-108.766-39.511 230.367a27.995 27.995 0 0 0 8.053 24.784l167.37 163.146-231.301 33.61a27.998 27.998 0 0 0-21.082 15.317L512 716.368 408.559 506.773a28 28 0 0 0-21.082-15.317l-231.301-33.61L323.547 294.7a28.004 28.004 0 0 0 8.053-24.784l-39.511-230.367L498.97 148.314A27.99 27.99 0 0 0 512 151.53z"  horiz-adv-x="1024" />

    
    <glyph glyph-name="tuichu" unicode="&#58947;" d="M704.3 766.1v-78.7c78-64.5 127.7-161.8 127.7-270.7 0-193.6-157.5-351.2-351.2-351.2S129.7 223.1 129.7 416.7c0 108.8 49.8 206.2 127.7 270.7v78.7C142.3 692.3 65.9 563.6 65.9 416.7c0-229.2 185.8-415 415-415s415 185.8 415 415c0 146.9-76.5 275.6-191.6 349.4zM448.9 831.7h63.8v-446.9h-63.8z"  horiz-adv-x="1024" />

    
    <glyph glyph-name="juxing" unicode="&#58952;" d="M983.81579588 654.59979588H854.27979588V784.13579588c0 15.35999999-12.8 28.16-28.16 28.16s-28.16-12.8-28.16-28.16v-129.536H668.42379588c-15.35999999 0-28.16-12.8-28.16-28.16s12.8-28.16 28.16-28.16h129.536v-129.536c0-15.35999999 12.8-28.16 28.16-28.16s28.16 12.8 28.16 28.16V598.2797958799999H983.81579588c15.35999999 0 28.16 12.8 28.16 28.16 0 15.872-12.8 28.16-28.16 28.16zM39.17579588 547.07979588c14.336 0 25.60000001 11.26399999 25.6 25.6h1.024v28.16h47.104c13.824 0 25.60000001 11.26399999 25.6 25.6s-11.776 25.60000001-25.6 25.6l-73.728 0.512c-14.336 0-25.60000001-11.26399999-25.6-25.6v-55.296c0-12.8 11.26399999-24.576 25.6-24.576z m175.104 54.272h128c14.336 0 25.60000001 11.26399999 25.6 25.6s-11.26399999 25.60000001-25.6 25.6h-128c-14.336 0-25.60000001-11.776-25.6-25.6 0-14.336 11.776-25.60000001 25.6-25.6z m229.376 0h128c14.336 0 25.60000001 11.26399999 25.6 25.6s-11.26399999 25.60000001-25.6 25.6h-128c-14.336 0-25.60000001-11.776-25.6-25.6 1.02399999-14.336 11.26399999-25.60000001 25.6-25.6zM852.23179588 320.77579588000003c0 14.336-11.26399999 25.60000001-25.6 25.6s-25.60000001-11.26399999-25.6-25.6v-128c0-14.336 11.26399999-25.60000001 25.6-25.6s25.60000001 11.26399999 25.6 25.6v128z m-25.6-203.776c-14.336 0-25.60000001-11.776-25.6-25.6v-82.944h-102.4v-1.536c-14.336 0-25.60000001-11.26399999-25.6-25.6s11.26399999-25.60000001 25.6-25.6h128c14.336 0 25.60000001 11.26399999 25.6 25.6V90.37579588000006c0 15.35999999-11.776 26.624-25.6 26.624zM601.35179588 8.455795879999982L64.77579588 9.479795879999983V498.95179588h-1.024c0 14.336-11.26399999 25.60000001-25.6 25.6s-25.60000001-11.26399999-25.6-25.6V-17.14420412000004c0-14.336 11.26399999-25.60000001 25.6-25.6H599.81579588c14.336 0 25.60000001 11.776 25.6 25.6 0 14.336-11.776 25.60000001-24.064 25.6z"  horiz-adv-x="1024" />

    
    <glyph glyph-name="tupian" unicode="&#58901;" d="M324.3 358.9c-57.9 0-105 47.1-105 105s47.1 105 105 105 105-47.1 105-105-47.1-105-105-105z m0 168c-34.7 0-63-28.3-63-63s28.3-63 63-63 63 28.3 63 63-28.3 63-63 63zM560.1-5.5c-5.4 0-10.7 2.1-14.8 6.2L344.9 201c-10.2 10.2-26.9 10.2-37.1 0L163.1 56.3c-8.2-8.2-21.5-8.2-29.7 0s-8.2 21.5 0 29.7l144.7 144.7c26.6 26.6 69.9 26.6 96.5 0L575 30.3c8.2-8.2 8.2-21.5 0-29.7-4.1-4.1-9.5-6.1-14.9-6.1zM414 150.3c-5.4 0-10.7 2.1-14.8 6.2-8.2 8.2-8.2 21.5 0 29.7l248.3 248.3c31 31 81.5 31 112.4 0l144.3-144.3c8.2-8.2 8.2-21.5 0-29.7s-21.5-8.2-29.7 0L730.2 404.7c-14.6 14.6-38.4 14.6-53.1 0L428.9 156.5c-4.1-4.1-9.5-6.2-14.9-6.2zM806-15H218c-57.9 0-105 47.1-105 105V678c0 57.9 47.1 105 105 105h588c57.9 0 105-47.1 105-105v-588c0-57.9-47.1-105-105-105zM218 741c-34.7 0-63-28.3-63-63v-588c0-34.7 28.3-63 63-63h588c34.7 0 63 28.3 63 63V678c0 34.7-28.3 63-63 63H218z"  horiz-adv-x="1024" />

    
    <glyph glyph-name="shuazi1" unicode="&#58887;" d="M394.1 758.7L138.5 503.1c-7-7-7-18.4 0-25.5L301 315.19999999000004c16-16 40.69999999-19.7 61.4-9.19999999 40 20.3 76.5 29.8 108.5 28.2 29.4-1.5 54.3-12.3 74.2-32.2 23.5-23.5 41.3-48.3 58.5-72.2 16.7-23.3 32.6-45.3 52.90000001-65.6 34.1-34.1 81.5-74.1 145.29999999-79.7l12.2-1.1-1.10000001 12.2c-5.7 63.8-45.6 111.1-79.69999999 145.3-20.3 20.3-42.3 36.10000001-65.6 52.9-23.9 17.20000001-48.7 35-72.2 58.50000001-19.9 19.9-30.7 44.9-32.2 74.19999999-1.6 32 7.9 68.5 28.20000001 108.5 10.5 20.7 6.8 45.3-9.20000001 61.39999999l-162.4 162.4c-7.19999999 6.9-18.7 6.9-25.7-0.09999999z m171.5-214c-19.9-39.89999999-30.1-77.4-30.1-111.3 0-39.4 14-74.2 40.4-100.6 25.1-25.1 50.8-43.5 75.6-61.4 22.4-16.1 43.5-31.2 62.2-50.00000001 25.9-25.9 56.9-61.2 68.1-106.09999999-44.9 11.19999999-80.3 42.20000001-106.1 68.09999999-18.7 18.7-33.9 39.9-50 62.30000001-17.8 24.8-36.3 50.5-61.30000001 75.6-50 50-125.2 53.6-211.89999999 10.30000001l213.1 213.09999999z m15.1-207c24.7-24.7 50.1-42.9 74.7-60.6 22.6-16.2 44-31.6 63.1-50.7 29.3-29.3 63.1-68.8 72.1-119.8-51 9-90.5 42.8-119.8 72.1-19.1 19.1-34.5 40.5-50.7 63.1-17.7 24.6-35.9 49.99999999-60.59999999 74.7-48.2 48.2-121.6 51-206.50000001 7.8-3.6-1.9-7.5-2.99999999-11.3-3.4l6.5 6.5c0.9 0.4 1.8 0.7 2.7 1.2 86.9 44.2 162.2 41.1 212-8.7 25-25 43.3-50.6 61.1-75.3 16.1-22.5 31.3-43.7 50.2-62.5 26.4-26.4 62.6-58 108.8-69l1.60000001-0.4-0.40000002 1.6c-11 46.2-42.7 82.4-68.99999999 108.7-18.8 18.8-40 34.1-62.5 50.2-24.8 17.8-50.4 36.2-75.30000001 61.1-26 26-39.80000001 60.3-39.79999999 99.1 0 34.29999999 10.5 72.3 31.1 112.9l1.2 2.70000001 6.5 6.49999999c-0.5-3.9-1.6-7.70000001-3.4-11.3-43.3-85.00000001-40.5-158.3 7.7-206.5z m-13.2 244.09999999c1-1 2-2.2 2.8-3.29999999L318.8 326.9c-1.2 0.9-2.3 1.8-3.3 2.8l-35.5 35.5 251.99999999 252.1 35.50000001-35.50000001z m-50 50.00000001l-252-252.1-110.7 110.7 38.3 38.3 46.5-46.5 14.5 14.5-46.5 46.5 10.2 10.2 27.4-27.4 14.5 14.5-27.4 27.4L334.4 670l46.5-46.5 14.5 14.50000001-46.5 46.49999999 10.2 10.2 27.4-27.4 14.5 14.5-27.4 27.4 33.3 33.3 110.6-110.7z"  horiz-adv-x="1024" />

    
    <glyph glyph-name="shuazi" unicode="&#58923;" d="M935.3264-31.991999999999962h-815.52l24-24v359.1216c0 54.7152-7.2912 113.16 29.8992 158.6928 40.6848 49.8048 97.7376 47.616 155.0016 47.616h451.44c53.688 0 98.5008-32.2992 121.008-79.9392 10.392-21.9984 10.176-46.1808 10.176-69.8352v-415.6608c0-30.9504 48-30.9504 48 0v359.1264c0 55.8432 4.5168 110.5584-22.3728 161.928-35.736 68.256-106.9008 92.376-178.9824 92.376H348.5552c-51.1536 0-100.704 3.7056-149.0304-16.7376-48.6864-20.592-83.7792-66.9744-97.872-116.8416-6.12-21.672-5.8416-44.0928-5.8416-66.3504v-413.5008c0-13.0896 10.9152-24 24-24h815.5344c30.9408 0.0048 30.9408 48.0048-0.0192 48.0048zM146.0144 279.7392H909.1232c30.9456 0 30.9456 48 0 48H146.0096c-30.9504 0-30.9504-48 0.0048-48zM551.5712-46.39200000000005v203.8752c0 30.9504-48 30.9504-48 0v-203.8752c0-30.9504 48-30.9504 48 0zM357.6704-46.39200000000005v203.8752c0 30.9504-48 30.9504-48 0v-203.8752c0-30.9504 48-30.9504 48 0zM760.3424-46.39200000000005v203.8752c0 30.9504-48 30.9504-48 0v-203.8752c0-30.9504 48-30.9504 48 0zM383.1536 537.6048000000001V670.4928c0 81.4224 64.0512 134.4384 142.2096 134.4384 39.0384 0 73.6224-7.4064 103.6992-34.0608 28.2096-25.0032 42.9168-61.656 42.9168-98.9568v-134.3088c0-30.9552 48-30.9552 48 0 0 49.6656 2.6064 100.0176-0.5664 149.592-6.432 100.4832-93.792 165.7344-189.6336 165.7344-45.0336 0-86.5344-8.6544-123.2304-36.24-39.0288-29.3424-64.9248-74.2944-70.1232-122.9184-5.4864-51.3024-1.272-104.6208-1.272-156.168 0-30.9552 48-30.9552 48 0z"  horiz-adv-x="1024" />

    
    <glyph glyph-name="jiahao" unicode="&#60147;" d="M469.333333 426.666667V725.333333h85.333334v-298.666666h298.666666v-85.333334h-298.666666v-298.666666h-85.333334v298.666666H170.666667v85.333334h298.666666z"  horiz-adv-x="1024" />

    
    <glyph glyph-name="guanbi" unicode="&#58963;" d="M874.666667 104.533333L571.733333 405.333333 874.666667 706.133333c17.066667 17.066667 17.066667 44.8 0 59.733334-17.066667 17.066667-44.8 17.066667-59.733334 0L512 465.066667 211.2 768c-17.066667 14.933333-44.8 14.933333-61.866667 0s-14.933333-44.8 0-61.866667L452.266667 405.333333 149.333333 104.533333c-17.066667-17.066667-17.066667-44.8 0-59.733333 17.066667-17.066667 44.8-17.066667 59.733334 0L512 345.6 812.8 42.666667c17.066667-17.066667 44.8-17.066667 59.733333 0 17.066667 17.066667 17.066667 44.8 2.133334 61.866666z"  horiz-adv-x="1024" />

    
    <glyph glyph-name="yulan" unicode="&#58984;" d="M614.4-128H128c-70.656 0-128 57.344-128 128V768C0 838.656 57.344 896 128 896h614.4c70.656 0 128-57.344 128-128v-230.4c0-14.336-11.264-25.6-25.6-25.6s-25.6 11.264-25.6 25.6V768c0 42.496-34.304 76.8-76.8 76.8H128c-42.496 0-76.8-34.304-76.8-76.8v-768c0-42.496 34.304-76.8 76.8-76.8h486.4c14.336 0 25.6-11.264 25.6-25.6s-11.264-25.6-25.6-25.6zM691.2 640H179.2c-14.336 0-25.6 11.264-25.6 25.6s11.264 25.6 25.6 25.6h512c14.336 0 25.6-11.264 25.6-25.6s-11.264-25.6-25.6-25.6zM384 452.096H179.2c-14.336 0-25.6 11.264-25.6 25.6s11.264 25.6 25.6 25.6h204.8c14.336 0 25.6-11.264 25.6-25.6s-11.264-25.6-25.6-25.6zM281.6 264.704H179.2c-14.336 0-25.6 11.264-25.6 25.6s11.264 25.6 25.6 25.6h102.4c14.336 0 25.6-11.264 25.6-25.6s-11.264-25.6-25.6-25.6zM332.8 76.8H179.2c-14.336 0-25.6 11.264-25.6 25.6s11.264 25.6 25.6 25.6h153.6c14.336 0 25.6-11.264 25.6-25.6s-11.264-25.6-25.6-25.6zM640 0c-141.312 0-256 114.688-256 256s114.688 256 256 256 256-114.688 256-256-114.688-256-256-256z m0 460.8c-113.152 0-204.8-91.648-204.8-204.8s91.648-204.8 204.8-204.8 204.8 91.648 204.8 204.8-91.648 204.8-204.8 204.8zM998.4-128c-6.656 0-13.312 2.56-17.92 7.68l-189.44 189.44c-10.24 10.24-10.24 26.112 0 36.352s26.112 10.24 36.352 0l189.44-189.44c10.24-10.24 10.24-26.112 0-36.352-5.12-5.12-11.776-7.68-18.432-7.68z"  horiz-adv-x="1024" />

    
    <glyph glyph-name="zitijiacu" unicode="&#60547;" d="M768.96 320.928c-22.144 34.112-54.816 56.8-97.984 68.032v2.176c22.88 10.88 42.112 23.04 57.696 36.48 15.616 12.704 27.584 26.144 35.936 40.288 16.32 29.76 24.128 60.96 23.392 93.632 0 63.872-19.776 115.232-59.328 154.08-39.2 38.464-97.824 58.048-175.84 58.784H215.232v-793.728H579.52c62.432 0 114.496 20.864 156.256 62.624 42.112 39.936 63.52 94.176 64.224 162.752 0 41.376-10.336 79.68-31.04 114.88zM344.32 667.168h194.912c43.904-0.736 76.224-11.424 96.896-32.128 21.056-22.144 31.584-49.184 31.584-81.12s-10.528-58.432-31.584-79.488c-20.672-22.848-52.992-34.304-96.896-34.304H344.32V667.168z m304.352-536.256c-20.672-23.584-53.344-35.744-97.984-36.48H344.32v238.432h206.336c44.64-0.704 77.312-12.512 97.984-35.392 20.672-23.232 31.04-51.168 31.04-83.84 0-31.904-10.336-59.488-31.008-82.72z"  horiz-adv-x="1024" />

    
    <glyph glyph-name="zitixiahuaxian" unicode="&#60549;" d="M512 84.704a312 312 0 0 1 312 312V806.4h-112v-409.696a200 200 0 1 0-400 0V806.4h-112v-409.696a312 312 0 0 1 312-312zM864 10.208H160a32 32 0 0 1 0-64h704a32 32 0 0 1 0 64z"  horiz-adv-x="1024" />

    
    <glyph glyph-name="zitixieti" unicode="&#60550;" d="M768 810.208h-288a32 32 0 0 1 0-64h96.32l-230.336-704H256a32 32 0 0 1 0-64h288a32 32 0 0 1 0 64h-93.728l230.528 704H768a32 32 0 0 1 0 64z"  horiz-adv-x="1024" />

    
    <glyph glyph-name="xia1" unicode="&#59056;" d="M889.06160075 577.86413369l-377.06160075-377.06160072-377.06160075 377.06160072h754.1232015z"  horiz-adv-x="1024" />

    
    <glyph glyph-name="shezhi" unicode="&#58948;" d="M984.66181373 472.926149c-2.3474294 12.56565149-12.15139925 22.64578949-24.9932189 25.54555523-46.25816757 10.49439025-84.78362653 38.52545897-108.5340887 78.98409508-23.61237808 40.32055203-28.99765728 87.4072241-15.05116496 132.28455084 3.86635431 12.28948332 0 25.68363931-9.94205392 34.10676834-46.25816757 39.49204754-98.86820293 69.59437748-156.58734933 89.34040124-3.45210207 1.24275675-7.04228819 1.79509307-10.77055843 1.79509307-9.11354943 0-17.81284661-3.72827022-24.02663032-10.35630617-32.31167525-34.24485242-76.08432934-53.1623717-123.17100142-53.16237168s-90.85932615 18.91751926-123.3090855 53.30045577c-8.69929718 9.25163351-22.64578949 12.70373557-34.93527282 8.5612131-57.99531457-20.02219194-110.60534992-50.12452187-156.44926525-89.47848533-9.80396985-8.42312903-13.67032415-21.67920092-9.80396984-33.83060018 13.9464923-44.87732675 8.5612131-91.82591473-15.05116497-132.28455084-23.47429398-40.45863612-61.99975295-68.48970482-108.39600462-78.98409508-12.70373557-3.0378498-22.50770542-12.97990373-24.99321888-25.54555522-5.79953147-29.96424587-8.69929718-60.06657581-8.69929719-89.20231717 0-29.13574137 2.89976573-59.23807131 8.69929719-89.20231717 2.3474294-12.56565149 12.15139925-22.64578949 24.85513481-25.54555522 46.25816757-10.49439025 84.78362653-38.52545897 108.53408869-78.98409508 23.61237808-40.45863612 28.85957319-87.4072241 15.05116497-132.28455084-3.72827022-12.15139925 0.13808409-25.40747114 9.94205393-33.96868426 46.25816757-39.49204754 98.86820293-69.4562934 156.44926524-89.34040125 12.70373557-4.28060655 26.23597565-0.55233633 34.79718874 8.42312901 32.31167525 34.3829365 76.08432934 53.30045577 123.3090855 53.30045579 47.08667206 0 90.85932615-18.91751926 123.3090855-53.1623717 6.07569962-6.62803595 14.91308089-10.35630617 24.02663032-10.35630617 3.59018613 0 7.18037229 0.55233633 10.90864251 1.79509307 57.58106231 19.88410785 110.19109769 49.84835372 156.44926524 89.34040125 9.66588576 8.42312903 13.53224006 21.67920092 9.94205393 33.96868426-13.9464923 44.87732675-8.5612131 91.96399882 15.05116497 132.28455084 23.61237808 40.45863612 62.13783703 68.48970482 108.53408869 78.98409508 12.56565149 2.89976573 22.36962133 12.84181965 24.85513482 25.54555522 5.79953147 29.96424587 8.69929718 60.06657581 8.69929718 89.20231717 0 28.99765728-3.0378498 58.96190314-8.69929718 88.926149z m-231.98125826-394.36813907c-28.72148912-22.23153725-60.48082805-40.32055203-94.4495123-53.99087617-40.45863612 35.48760915-92.37825106 54.95746475-146.64529542 54.95746476-53.99087618 0-105.91049113-19.46985561-146.6452954-54.95746476-33.96868425 13.53224006-65.72802318 31.62125485-94.4495123 53.99087617 10.90864251 52.47195126 2.07126124 106.60091154-25.13130298 153.13524729-27.06448014 46.39625165-70.00862973 81.0553563-121.6520765 98.17778251-2.62359757 18.08901478-4.00443838 36.17802957-4.0044384 53.99087618 0 17.67476253 1.38084082 35.9018614 4.0044384 53.99087619 51.5053627 16.98434213 94.58759638 51.64344678 121.6520765 98.17778251 27.06448014 46.39625165 35.9018614 100.52521191 25.13130298 153.13524729 28.72148912 22.23153725 60.48082805 40.32055203 94.4495123 53.99087618 40.73480429-35.62569324 92.51633514-55.09554883 146.6452954-55.09554884 54.40512843 0 106.1866593 19.46985561 146.64529542 54.95746474 33.96868425-13.53224006 65.72802318-31.62125485 94.4495123-53.99087618-10.77055842-52.61003536-2.07126124-106.73899562 24.9932189-153.13524727 27.06448014-46.39625165 70.00862973-81.0553563 121.65207649-98.17778252 2.62359757-18.08901478 4.00443838-36.17802957 4.00443839-54.12896026 0.13808409-17.12242621-1.10467265-35.07335691-3.8663543-53.8527921-51.64344678-17.12242621-94.72568046-51.78153086-121.65207652-98.17778251-27.06448014-46.25816757-35.76377732-100.38712784-25.13130296-152.99716321z m0 0M512 190.68228477000002c-106.1866593 0-192.62729482 86.44063553-192.62729482 192.62729481S405.67525663 575.9368744000001 512 575.9368744000001c106.1866593 0 192.62729482-86.44063553 192.62729482-192.62729482S618.1866593 190.68228477000002 512 190.68228477000002z m0 316.21254848c-68.21353665 0-123.58525366-55.371717-123.58525366-123.58525367S443.78646335 259.72432591999996 512 259.72432591999996s123.58525366 55.371717 123.58525366 123.58525366S580.07545259 506.89483325 512 506.89483325z"  horiz-adv-x="1024" />

    
    <glyph glyph-name="xiantiao-line" unicode="&#59342;" d="M127.389 44.365999999999985l724.21 724.21 45.198-45.196-724.211-724.212z"  horiz-adv-x="1024" />

    
    <glyph glyph-name="jiantou_shang" unicode="&#58920;" d="M279.162466 512.847341L511.998194 795.713454l232.83934-282.866113h-104.836405v-564.0398H384.000677V512.847341h-104.838211z m552.438473-76.793091c30.293859 0 46.923693 35.226636 27.674846 58.617137C752.746955 624.099427 646.203676 753.514823 539.674846 882.942863c-14.339551 17.408312-41.010141 17.408312-55.349692 0-106.52883-129.42804-213.072109-258.843436-319.602745-388.271476-19.247041-23.390501-2.619014-58.617137 27.673039-58.617137h114.799495v-528.204469c0-19.803355 16.044619-35.849781 35.84978-35.849781h337.910554c19.790712 0 35.835331 16.046425 35.835331 35.849781V436.05425h114.810331z"  horiz-adv-x="1024" />

    
    <glyph glyph-name="jiantou_you" unicode="&#58922;" d="M640.844859 255.998645H76.804064V511.999548h564.040795v104.836591l282.870224-232.836139L640.844859 151.151218v104.847427z m-76.804064 332.79413H35.835394C16.04826 588.792775 0 572.746321 0 552.955575v-337.9256c0-19.790747 16.04826-35.8372 35.835394-35.8372h528.205401v-114.808728c0-30.281269 35.241148-46.921969 58.61724-27.662251 129.428268 106.530824 258.858342 213.059842 388.273967 319.603309 17.420987 14.339576 17.420987 41.008407 0 55.34979-129.415625 106.529018-258.845699 213.058035-388.273967 319.601502-23.374286 19.248881-58.61724 2.606375-58.61724-27.673088v-114.810534z"  horiz-adv-x="1024" />

    
    <glyph glyph-name="jiantou_xia" unicode="&#58924;" d="M309.011996 860.150219C309.011996 879.953575 325.154151 896 345.073104 896h339.910035c19.90631 0 36.048464-16.046425 36.048464-35.849781v-528.202663h115.489469c30.472675 0 47.198238-35.228442 27.837405-58.617137-107.159199-129.42804-214.332848-258.843436-321.490241-388.271475-14.424443-17.410119-41.252174-17.410119-55.678423 0C380.028808 14.486983 272.856965 143.900573 165.697766 273.330419c-19.362638 23.388695-2.63527 58.617137 27.837405 58.617137h115.476825V860.150219zM386.271091 255.154465h-105.455937l234.213871-282.867919L749.241089 255.154465h-105.455937V819.194265H386.271091V255.154465z"  horiz-adv-x="1024" />

    
    <glyph glyph-name="jiantou_zuo" unicode="&#58926;" d="M459.961011 179.194581v-114.808727c0-30.281269-35.241148-46.921969-58.628077-27.662251-129.415625 106.530824-258.843893 213.059842-388.273967 319.603309-17.410149 14.339576-17.410149 41.008407 0 55.349789A4672009.166564 4672009.166564 0 0 1 401.332934 731.278204c23.38693 19.248881 58.628078 2.606375 58.628077-27.673089v-114.810534h528.205401c19.790747 0 35.8372-16.046454 35.8372-35.8372v-337.925599c0-19.790747-16.046454-35.8372-35.8372-35.837201H459.961011zM383.156947 511.999548v104.836591L100.290336 384 383.156947 151.151218v104.849234h564.040795V511.999548H383.156947z"  horiz-adv-x="1024" />

    
    <glyph glyph-name="arrow-right" unicode="&#58935;" d="M4e-8 896L512.00000004 384 4e-8-128Z"  horiz-adv-x="1024" />

    


  </font>
</defs>
</svg>
